<?xml version="1.0" encoding="UTF-8" standalone="no"?>
<!-- Created with Inkscape (http://www.inkscape.org/) -->

<svg
   xmlns:dc="http://purl.org/dc/elements/1.1/"
   xmlns:cc="http://creativecommons.org/ns#"
   xmlns:rdf="http://www.w3.org/1999/02/22-rdf-syntax-ns#"
   xmlns:svg="http://www.w3.org/2000/svg"
   xmlns="http://www.w3.org/2000/svg"
   xmlns:sodipodi="http://sodipodi.sourceforge.net/DTD/sodipodi-0.dtd"
   xmlns:inkscape="http://www.inkscape.org/namespaces/inkscape"
   id="svg3344"
   version="1.1"
   inkscape:version="0.91 r13725"
   width="1500"
   height="468.75"
   viewBox="0 0 1500 468.75"
   sodipodi:docname="logo.svg">
  <metadata
     id="metadata3350">
    <rdf:RDF>
      <cc:Work
         rdf:about="">
        <dc:format>image/svg+xml</dc:format>
        <dc:type
           rdf:resource="http://purl.org/dc/dcmitype/StillImage" />
        <dc:title></dc:title>
      </cc:Work>
    </rdf:RDF>
  </metadata>
  <defs
     id="defs3348" />
  <sodipodi:namedview
     pagecolor="#ffffff"
     bordercolor="#666666"
     borderopacity="1"
     objecttolerance="10"
     gridtolerance="10"
     guidetolerance="10"
     inkscape:pageopacity="0"
     inkscape:pageshadow="2"
     inkscape:window-width="1920"
     inkscape:window-height="1017"
     id="namedview3346"
     showgrid="false"
     inkscape:zoom="1"
     inkscape:cx="649.13832"
     inkscape:cy="157.05689"
     inkscape:window-x="-8"
     inkscape:window-y="-8"
     inkscape:window-maximized="1"
     inkscape:current-layer="svg3344" />
  <path
     style="fill:#bf2323"
     d="m 962.8125,446.89356 c -4.68534,-1.48508 -11.78616,-8.90579 -13.29347,-13.89239 -3.80822,-12.59852 1.01625,-39.65996 10.58766,-59.3883 4.41469,-9.09951 12.62578,-17.34155 20.01806,-20.09352 10.41262,-3.87639 19.42444,-4.73066 30.09365,-2.85271 16.7288,2.94454 22.888,9.38684 22.9014,23.95368 0.01,8.44753 -0.6456,8.81718 -15.5842,8.81718 -7.57,0 -12.5486,-0.38802 -13.1885,-1.0279 -0.6264,-0.62641 -0.8415,-3.09811 -0.5506,-6.32813 0.4082,-4.53276 0.196,-5.55387 -1.4656,-7.05196 -2.2723,-2.04878 -5.15349,-1.61423 -8.91502,1.34461 -3.11672,2.45162 -5.67113,7.56105 -8.63972,17.28213 -1.25972,4.125 -2.68538,8.76563 -3.168,10.3125 -2.72203,8.72337 -4.73316,18.81919 -4.73316,23.76003 0,5.03063 0.27656,5.85265 2.57784,7.66285 5.38425,4.23526 12.44457,0.2614 16.26666,-9.15561 2.28197,-5.62252 1.79616,-7.96373 -1.76278,-8.49542 -3.84459,-0.57437 -4.36753,-2.48996 -2.55019,-9.34085 0.92006,-3.4683 2.10816,-6.85968 2.64028,-7.53639 1.33622,-1.69948 32.79579,-1.21424 34.53919,0.53274 1.2577,1.26023 1.0038,2.65146 -3.0363,16.63515 -1.0428,3.60938 -2.4635,8.67188 -3.1572,11.25 -3.839,14.2672 -5.5483,19.81785 -6.4517,20.94949 -0.7871,0.98601 -4.3999,1.2051 -16.52099,1.00188 -13.09781,-0.21959 -15.95156,-0.0156 -18.32606,1.31037 -3.24816,1.8137 -13.07081,2.00207 -18.28125,0.35057 z m 316.4063,0.63049 c -11.3027,-1.71595 -20.5027,-7.52283 -24.0173,-15.15931 -5.1698,-11.23314 -0.3713,-40.73711 9.9323,-61.07044 3.2369,-6.3876 10.4686,-14.07638 15.6945,-16.68629 17.5116,-8.74573 45.5807,-5.56364 53.6354,6.08042 2.3656,3.41992 2.8024,5.04715 3.1543,11.74964 0.3221,6.1386 0.1115,8.02622 -0.9984,8.94733 -1.0131,0.84084 -5.1732,1.09444 -14.8725,0.90662 l -13.4658,-0.26077 0.3218,-6.21369 c 0.2913,-5.62263 0.1153,-6.35834 -1.8492,-7.73438 -3.0705,-2.15064 -4.0997,-1.93743 -8.1021,1.67848 -4.0363,3.64653 -7.667,10.96697 -10.5025,21.17584 -1.0741,3.86719 -2.5516,9.14062 -3.2832,11.71875 -0.7318,2.57812 -2.0692,8.32487 -2.9723,12.77054 -1.5642,7.701 -1.5642,8.2015 6e-4,10.58956 2.4973,3.81149 5.6236,4.90951 8.5392,2.99917 2.8296,-1.854 7.0664,-8.26512 7.0664,-10.69271 0,-0.94294 0.5303,-2.43975 1.1785,-3.32624 1.0394,-1.42145 2.8386,-1.58101 15.2344,-1.35106 l 14.0559,0.26074 -0.1299,2.96985 c -0.071,1.63342 -1.1991,5.21936 -2.506,7.96875 -4.7588,10.01144 -13.4796,17.50793 -24.0829,20.70174 -5.431,1.63589 -17.2774,2.69919 -22.0312,1.97746 z M 666.01589,444.9789 c -0.2944,-0.76718 -0.0947,-2.21814 0.44382,-3.22434 0.53851,-1.0062 1.4163,-3.67589 1.95066,-5.93264 0.53435,-2.25675 1.81182,-7.0563 2.83881,-10.66567 1.02699,-3.60938 3.10003,-11.20313 4.60674,-16.875 1.50671,-5.67188 3.66224,-13.6875 4.79006,-17.8125 1.12781,-4.125 3.62575,-13.73894 5.55099,-21.3643 1.92522,-7.62538 4.01401,-14.37537 4.64176,-15 1.53704,-1.52938 45.78339,-1.4224 51.2853,0.12399 15.47164,4.34854 19.13025,20.1406 11.53451,49.7878 -5.46533,21.33191 -13.42293,33.81858 -25.01447,39.25148 l -5.36282,2.51353 -28.36505,0.29627 c -24.43224,0.25519 -28.43926,0.10286 -28.90031,-1.09862 z m 41.87059,-15.6039 c 2.41266,0 9.03335,-6.10168 11.1203,-10.24855 3.42713,-6.80996 6.68894,-17.97821 9.05428,-31.00145 2.5493,-14.03607 1.18171,-18.02191 -6.24078,-18.18868 -3.8125,-0.0857 -4.24096,0.15255 -5.73543,3.18868 -0.88832,1.80469 -2.55098,6.86719 -3.69481,11.25 -1.14382,4.38281 -3.09775,11.55469 -4.34207,15.9375 -1.2443,4.38281 -2.86189,10.07812 -3.59464,12.65625 -2.96072,10.41725 -3.5232,14.42246 -2.24221,15.96597 0.66786,0.80471 1.81401,1.23297 2.547,0.9517 0.73301,-0.28128 2.14076,-0.51142 3.12836,-0.51142 z m 52.76943,15.48018 c -0.52042,-1.3562 1.25058,-8.3001 12.31679,-48.29268 6.96009,-25.15333 8.59566,-31.50218 9.38426,-36.42728 0.35962,-2.24595 1.49248,-4.92216 2.51747,-5.94715 1.78621,-1.78621 2.92123,-1.84934 27.32272,-1.51977 24.08341,0.32527 25.67013,0.45551 29.36453,2.4103 5.89593,3.11968 8.17672,6.95417 8.60083,14.45983 0.48708,8.62019 -1.78614,15.53406 -7.02234,21.35797 -2.23474,2.48557 -5.69906,5.17376 -7.69848,5.97378 -4.76574,1.90686 -5.18982,3.4087 -2.1638,7.66301 2.39081,3.36128 2.49748,4.00934 2.37253,14.41504 -0.072,5.99254 -0.49384,14.48146 -0.9375,18.86427 l -0.80667,7.96875 -12.54361,0.26243 c -18.49274,0.3869 -18.33984,0.58254 -15.59191,-19.94993 0.75909,-5.67188 1.3884,-11.05078 1.39847,-11.95313 0.0247,-2.21359 -3.28863,-5.39062 -5.62187,-5.39062 -2.27288,0 -3.64661,2.94375 -6.56241,14.0625 -3.58968,13.6885 -5.83524,21.04972 -6.7922,22.26562 -0.65885,0.83713 -4.64712,1.17188 -13.96194,1.17188 -10.67848,0 -13.13655,-0.25257 -13.57487,-1.39482 z m 54.23305,-55.55831 c 5.23847,-5.56408 6.72646,-16.78186 2.52433,-19.03078 -3.01541,-1.6138 -6.7932,-0.71154 -8.04497,1.92141 -1.8163,3.82033 -5.12098,17.06511 -4.59796,18.42807 0.28858,0.75203 1.9353,1.25943 4.08731,1.25943 2.71825,0 4.2006,-0.63365 6.03129,-2.57813 z m 33.44811,55.42587 c -1.10288,-1.32889 1.59173,-7.20016 20.74458,-45.20031 12.10665,-24.02017 22.75038,-44.42665 23.65272,-45.34774 1.47393,-1.50453 3.67696,-1.67469 21.68209,-1.67469 15.71006,0 20.26913,0.27433 21.0949,1.26932 1.06587,1.2843 1.04467,1.68039 -3.11757,58.26193 -2.21326,30.08724 -2.49613,32.33709 -4.17286,33.19084 -0.8262,0.42068 -6.56468,0.84857 -12.75218,0.95085 -15.25959,0.25226 -14.83585,0.6604 -13.4437,-12.94891 1.03553,-10.12311 0.99887,-10.7526 -0.70054,-12.02694 -2.23067,-1.67271 -11.70281,-1.21262 -13.9823,0.67918 -0.86104,0.71461 -4.03046,6.49104 -7.04313,12.83652 l -5.47758,11.53721 -12.60846,0 c -10.50784,0 -12.81963,-0.25445 -13.87597,-1.52726 z m 56.05545,-44.64462 c 0.41423,-0.64453 1.26089,-4.125 1.88145,-7.73437 1.32273,-7.69348 0.44631,-9.57169 -2.8276,-6.05966 -2.56731,2.75404 -6.66235,12.61711 -5.81065,13.99518 0.8418,1.36207 5.84789,1.21305 6.7568,-0.20115 z M 509.0625,444.3444 c -22.12475,-1.18874 -55.30545,-5.00753 -72.50513,-8.34465 -17.74018,-3.442 -32.00137,-6.58158 -38.11987,-8.39203 -3.35156,-0.99172 -9.46875,-2.73244 -13.59375,-3.86827 -37.0828,-10.21083 -76.71014,-27.80562 -111.09375,-49.32634 -26.56795,-16.6289 -54.28062,-40.59866 -75.63208,-65.41709 -2.9796,-3.46343 -5.26126,-5.34365 -6.09589,-5.02337 -0.80535,0.30903 -2.736,5.84556 -4.87246,13.97273 -1.94621,7.40348 -4.29934,16.20306 -5.22917,19.55462 -0.92983,3.35156 -2.6481,9.67969 -3.81839,14.0625 -1.17028,4.38281 -3.29135,11.97656 -4.7135,16.875 -3.61282,12.444 -5.77107,20.2959 -11.2095,40.78125 -7.91815,29.82582 -8.75495,32.76968 -9.66023,33.98437 -1.32749,1.78122 -95.1866,1.70226 -95.870764,-0.0806 -0.44842,-1.16857 0.793624,-6.32835 9.402363,-39.05998 1.830795,-6.96094 6.504791,-25.3125 10.386658,-40.78125 3.881866,-15.46875 8.515885,-33.39844 10.29782,-39.84375 1.781935,-6.44531 4.059279,-14.88281 5.060764,-18.75 1.001485,-3.86719 4.219173,-15.67969 7.150417,-26.25 2.931242,-10.57031 6.510472,-23.64844 7.953832,-29.0625 4.18118,-15.68353 5.25233,-19.60877 7.93078,-29.0625 1.38784,-4.89844 3.77273,-13.54688 5.29975,-19.21875 1.52703,-5.67188 3.35137,-12.42188 4.05412,-15 3.2787,-12.02841 5.47589,-20.31357 10.69816,-40.3405 5.6528,-21.678 8.36656,-31.93122 16.49336,-62.315751 2.41346,-9.023438 6.01203,-22.734375 7.99684,-30.46875 6.42323,-25.029918 7.59304,-29.041886 8.83741,-30.308729 1.8924,-1.926562 126.12767,-1.598778 136.45362,0.36002 35.4466,6.724106 61.83379,29.816396 71.1806,62.292459 7.51468,26.110201 7.56274,46.850391 0.17791,76.773001 -6.96324,28.21437 -21.96431,55.59856 -40.86617,74.60045 -7.3517,7.3906 -23.75503,21.12653 -25.22913,21.12653 -0.28364,0 -2.86385,1.50209 -5.73381,3.33798 -16.00942,10.2411 -39.26233,18.33656 -64.3948,22.41892 -7.26313,1.17979 -5.72224,3.36604 8.43339,11.9655 12.64533,7.68198 20.67635,11.94475 32.54935,17.27682 9.94748,4.46733 34.75464,13.79291 40.58302,15.25607 1.91371,0.48043 7.27636,1.96262 11.91698,3.29378 9.59445,2.75213 28.54796,6.90428 44.77889,9.80971 34.09514,6.10321 77.85858,8.69499 140.37736,8.31349 l 43.59375,-0.26602 2.14625,-7.96875 c 1.18044,-4.38281 2.98541,-11.13281 4.01103,-15 1.02564,-3.86719 2.65459,-9.77344 3.6199,-13.125 1.73094,-6.00989 7.31803,-26.56332 10.44855,-38.4375 1.53802,-5.83378 2.49332,-9.27207 6.64212,-23.90625 1.02326,-3.60938 2.24444,-8.38283 2.71373,-10.60769 0.46929,-2.22485 1.53883,-6.23266 2.37674,-8.90625 2.50104,-7.98027 3.02545,-9.88985 8.84355,-32.20285 3.0702,-11.77452 7.47225,-28.36915 9.78233,-36.87696 2.31007,-8.50781 6.34405,-23.48438 8.96439,-33.28125 2.62033,-9.79687 6.62105,-24.5625 8.89047,-32.8125 2.26942,-8.25 6.06131,-22.382813 8.42641,-31.40625 9.91022,-37.809781 11.05323,-41.793611 12.4404,-43.359375 1.35604,-1.530642 5.51312,-1.640372 62.01131,-1.636855 65.36452,0.004 69.00188,0.222951 85.37423,5.137475 28.6344,8.595255 50.55609,29.603655 59.46712,56.989645 7.47568,22.97476 7.98298,50.89971 1.38337,76.15036 -1.07812,4.125 -2.30672,8.97656 -2.73021,10.78125 -1.59337,6.79001 -8.44262,23.70292 -12.52883,30.9375 -1.31055,2.32031 -3.29942,5.90625 -4.4197,7.96875 -8.00352,14.73486 -28.38113,36.40568 -44.28679,47.09734 -9.94601,6.68563 -10.2845,6.88686 -18.42012,10.95063 -2.83594,1.41657 -5.898,2.96836 -6.80457,3.44843 -3.86749,2.04799 -15.78351,6.40012 -22.72668,8.30053 -19.18701,5.25169 -24.38681,5.95456 -46.33405,6.26313 -11.56185,0.16254 -21.35312,0.62711 -21.75838,1.03236 -0.40525,0.40526 -1.39136,3.47525 -2.19135,6.8222 -0.8,3.34696 -2.04637,7.98382 -2.76972,10.30413 -0.72334,2.32031 -2.64427,9.28125 -4.26873,15.46875 -4.42022,16.83651 -6.65161,24.89718 -8.04522,29.0625 -0.69004,2.0625 -2.12689,7.33594 -3.19298,11.71875 -1.06609,4.38281 -3.44425,13.45312 -5.28479,20.15625 -1.84056,6.70312 -5.45759,19.99219 -8.03786,29.53125 -2.58027,9.53906 -5.71911,21.13643 -6.9752,25.77194 -1.2561,4.63551 -2.80028,8.91103 -3.43151,9.50117 -1.41994,1.32748 -105.685,2.36662 -126.30396,1.25879 z M 251.25,267.03877 c 12.28608,-2.33291 20.17348,-4.80215 28.59375,-8.95158 30.75655,-15.15657 50.05312,-39.08648 62.21183,-77.14969 5.73916,-17.96662 6.8145,-27.99683 4.42243,-41.25 -5.02939,-27.86498 -21.96894,-49.23933 -46.94676,-59.237493 -12.6188,-5.051074 -43.42181,-7.572589 -46.53569,-3.809382 -1.58882,1.920128 -2.38771,4.333506 -6.43951,19.453125 -1.65815,6.1875 -4.03634,15.04688 -5.28488,19.6875 -1.24854,4.64062 -2.86125,10.75781 -3.58381,13.59375 -0.72256,2.83594 -2.42169,9.16406 -3.77584,14.0625 -1.35415,4.89844 -3.66115,13.54687 -5.12667,19.21875 -2.28622,8.84819 -6.14879,23.27187 -9.41464,35.15625 -13.225,48.12569 -16.09735,59.81563 -15.13787,61.60845 0.51551,0.96323 3.11648,3.78971 5.77992,6.28105 l 4.84264,4.52972 13.27567,-0.66189 c 7.30163,-0.36404 17.70537,-1.50301 23.11943,-2.53106 z m 480.46875,-1.19523 c 20.60175,-3.67344 39.79086,-11.26852 51.78174,-20.4953 18.92595,-14.56318 32.89495,-37.12655 42.69181,-68.95778 3.86052,-12.54332 3.93694,-13.05659 3.85917,-25.92171 -0.0689,-11.40652 -0.40025,-14.14399 -2.53037,-20.90754 -6.80413,-21.6045 -19.41125,-37.094533 -38.13681,-46.857664 -10.73557,-5.597311 -20.7273,-7.804365 -37.97804,-8.388899 -16.05749,-0.5441 -16.32725,-0.43619 -18.11855,7.247853 -1.09163,4.682747 -6.32724,24.49586 -9.53776,36.09375 -1.14188,4.125 -3.30405,12.14062 -4.80482,17.8125 -1.50077,5.67187 -3.59574,13.47656 -4.65549,17.34375 -1.05975,3.86719 -2.48025,9.35156 -3.15667,12.1875 -0.67643,2.83594 -1.95297,7.6875 -2.83675,10.78125 -0.88378,3.09375 -3.23167,11.74219 -5.21754,19.21875 -1.98588,7.47656 -4.26331,15.91406 -5.06097,18.75 -1.50932,5.36614 -6.57226,24.89228 -8.14333,31.40625 -0.49745,2.0625 -1.72737,6.43116 -2.73316,9.70813 -2.27192,7.40216 -2.32656,10.9809 -0.18809,12.31912 2.37159,1.48409 34.28487,0.52883 44.76563,-1.33996 z m 337.33495,177.97058 c -0.5349,-1.39375 4.1673,-20.77346 8.1665,-33.65787 0.9603,-3.09375 2.8545,-9.84375 4.2094,-15 5.8279,-22.17956 11.0674,-40.39689 11.9315,-41.48438 1.3878,-1.74689 50.4148,-1.58187 55.3728,0.18639 7.5704,2.69993 10.3526,7.3972 10.3011,17.39174 -0.058,11.2085 -5.7863,20.9695 -14.7907,25.20201 -2.3343,1.0973 -4.2443,2.45515 -4.2443,3.01744 0,0.5623 0.9492,2.35311 2.1094,3.97958 1.9207,2.69278 2.1074,4.00515 2.0877,14.67597 -0.012,6.44531 -0.2228,15.09375 -0.4688,19.21875 l -0.447,7.5 -13.7903,0.25922 c -13.7715,0.25887 -13.7923,0.25608 -15.3135,-2.06554 -1.4078,-2.14868 -1.4011,-3.31446 0.089,-15.39241 1.7972,-14.56593 1.4798,-17.51523 -2.059,-19.12757 -2.1342,-0.97242 -2.6415,-0.84256 -4.1928,1.07324 -0.9707,1.19875 -1.7649,2.75923 -1.7649,3.46775 0,0.70853 -1.104,4.98601 -2.4533,9.50552 -1.3494,4.51951 -3.063,10.71962 -3.8081,13.77802 -2.3194,9.52067 -1.2909,8.97052 -16.7698,8.97052 -11.5866,0 -13.6749,-0.22089 -14.1651,-1.49838 z m 54.2503,-55.39179 c 2.4712,-2.36766 5.446,-10.12496 5.446,-14.2017 0,-2.14533 -4.1162,-5.78313 -6.5437,-5.78313 -2.3457,0 -4.3734,2.70929 -5.6131,7.5 -0.6003,2.32031 -1.7418,6.23047 -2.5365,8.68923 -1.1918,3.68699 -1.2312,4.72804 -0.2252,5.94019 1.6802,2.02463 6.1853,1.00468 9.4725,-2.14459 z m 31.1464,55.61134 c -0.2699,-0.70336 3.6789,-9.66821 8.775,-19.92188 24.2563,-48.80449 34.3574,-68.50377 36.1194,-70.43992 1.8752,-2.06062 2.3782,-2.10937 21.767,-2.10937 24.1288,0 23.2169,-0.44683 22.0003,10.78125 -0.447,4.125 -1.4738,15.9375 -2.2816,26.25 -3.4205,43.66357 -4.4294,55.28394 -4.8602,55.98104 -0.2508,0.40574 -6.2857,0.73771 -13.4109,0.73771 -10.1974,0 -13.1959,-0.29052 -14.0876,-1.36494 -0.8805,-1.06091 -0.8898,-3.66488 -0.041,-11.68999 0.6001,-5.67878 0.8223,-10.75986 0.4939,-11.29131 -0.6416,-1.03812 -11.5401,-1.34252 -14.0184,-0.39153 -1.2996,0.49871 -9.9056,17.06021 -9.9056,19.06247 0,0.40422 -0.8744,1.84652 -1.9431,3.20512 -1.9333,2.4578 -2.0086,2.47018 -15.0294,2.47018 -10.188,0 -13.1951,-0.28324 -13.5771,-1.27883 z m 56.6843,-44.98845 c 0.5784,-0.697 1.1574,-3.96653 1.2866,-7.26562 0.3031,-7.73955 -1.5274,-8.05342 -5.1497,-0.88297 -2.5806,5.10856 -3.1384,7.61151 -1.9591,8.79087 1.0814,1.08141 4.7252,0.67944 5.8222,-0.64228 z m 122.339,44.88645 c -0.5482,-1.42869 0.3859,-5.57121 5.3966,-23.93167 5.7005,-20.88872 11.8638,-43.7021 14.4366,-53.4375 1.4309,-5.41406 3.1814,-11.00391 3.8902,-12.42188 l 1.2886,-2.57812 26.6616,0 c 30.8886,0 29.9577,-0.28999 26.6887,8.31309 -1.0098,2.65761 -1.836,5.8168 -1.836,7.02042 0,4.45693 -2.3962,5.29149 -15.1934,5.29149 -8.3029,0 -12.0314,0.34482 -12.6715,1.17187 -0.4989,0.64454 -1.5785,3.27024 -2.3992,5.8349 -2.1171,6.6162 -1.4874,7.05573 10.1079,7.05573 12.3934,0 12.6186,0.23134 9.7757,10.0435 -3.3135,11.43635 -2.1137,10.5815 -14.8502,10.5815 -7.7465,0 -11.3913,0.3542 -12.0588,1.17187 -0.5263,0.64454 -1.7976,3.91407 -2.8253,7.26563 -2.8169,9.18665 -2.5842,9.375 11.5835,9.375 9.8601,0 11.806,0.23684 12.2891,1.49572 0.9145,2.38297 -2.611,15.65394 -4.646,17.48865 -1.6428,1.48134 -4.4065,1.64063 -28.4639,1.64063 -22.6009,0 -26.7246,-0.20954 -27.1741,-1.38083 z M 865.29166,337.52334 c -11.10449,-1.43347 -21.92539,-6.72309 -28.07021,-13.72167 -3.62414,-4.12766 -7.83836,-12.44445 -9.94774,-19.63193 -2.51704,-8.57652 -2.26102,-28.22207 0.51861,-39.79474 7.22309,-30.07268 22.93036,-53.65151 45.59806,-68.44914 25.31033,-16.52277 60.66493,-17.84609 82.94099,-3.10449 1.99219,1.31838 4.18735,2.18017 4.87819,1.91509 0.69075,-0.26509 2.802,-6.11501 4.69153,-12.99984 10.89422,-39.69428 11.89707,-46.67824 7.72463,-53.79789 -3.16866,-5.40686 -7.44403,-7.32188 -17.37572,-7.78289 -19.85842,-0.92179 -32.44046,4.62659 -51.3414,22.64033 -14.48531,13.80539 -19.92987,16.38955 -24.43268,11.59653 -7.54689,-8.03329 5.60918,-25.08599 27.96158,-36.24337 17.54506,-8.75775 34.9425,-12.98847 56.72372,-13.7941 40.66838,-1.5042 67.09968,9.02186 78.27628,31.17288 l 3.2813,6.50314 -0.032,14.53125 -0.032,14.53125 -5.7968,22.5 c -9.3199,36.17492 -13.1547,50.80577 -16.5861,63.28125 -11.7412,42.68759 -12.7446,47.41243 -13.0434,61.42072 -0.1212,5.67984 -0.5422,10.84781 -0.9356,11.48438 -0.5493,0.88869 -9.9259,1.1574 -40.38897,1.1574 -44.37946,0 -42.71777,0.25446 -40.90764,-6.26418 1.42004,-5.11387 1.26715,-7.79832 -0.44414,-7.79832 -0.79673,0 -4.48813,2.0284 -8.20313,4.50756 -14.4399,9.63628 -23.88403,13.74095 -36.22484,15.74431 -8.58812,1.39414 -10.75059,1.43968 -18.83178,0.39647 z m 44.68767,-23.90638 c 6.01008,-2.77366 14.02802,-7.86152 22.55071,-14.30976 3.51413,-2.6588 3.43405,-2.43532 9.99833,-27.90095 2.79122,-10.82813 7.08713,-27.28125 9.54666,-36.5625 6.19313,-23.37074 6.13866,-21.99194 1.07016,-27.06038 -5.59866,-5.59865 -12.47372,-9.03337 -18.08149,-9.03337 -8.85893,0 -14.37621,6.31957 -19.09883,21.87605 -1.59123,5.24161 -3.28347,10.79582 -3.76051,12.3427 -0.47705,1.54687 -1.90208,7.03125 -3.16673,12.1875 -1.26466,5.15625 -3.44405,13.59375 -4.8431,18.75 -1.39905,5.15625 -3.09412,11.69531 -3.76684,14.53125 -0.67271,2.83594 -2.73001,10.64062 -4.57177,17.34375 -3.98651,14.50904 -4.22734,18.49175 -1.24654,20.61487 2.73806,1.95022 6.65794,1.24144 15.36995,-2.77916 z M 382.3652,334.44951 c -10.08265,-3.53136 -18.11678,-10.21062 -21.91851,-18.22215 -4.77015,-10.05236 -4.03201,-29.13918 2.03917,-52.72859 2.33101,-9.05714 4.79401,-18.99877 5.4733,-22.09252 1.29779,-5.91058 8.65117,-34.62669 15.96447,-62.34375 5.19336,-19.68261 6.65154,-25.4984 11.75289,-46.875 2.15337,-9.02344 4.45187,-16.97661 5.10779,-17.6737 1.72751,-1.836 77.33584,-2.17978 78.03615,-0.35482 0.48158,1.255 -0.22867,4.3057 -4.1973,18.02852 -1.26751,4.38281 -3.9114,14.08594 -5.87533,21.5625 -1.96393,7.47656 -4.91281,18.65625 -6.55308,24.84375 -4.80946,18.14239 -6.46992,24.49863 -10.28602,39.375 -1.98403,7.73437 -4.86233,18.70312 -6.39623,24.375 -1.53389,5.67187 -2.99524,11.36719 -3.24744,12.65625 -0.25219,1.28906 -1.40119,5.71875 -2.55333,9.84375 -3.90779,13.99103 -9.38817,36.55256 -9.39371,38.67187 -0.009,3.41705 3.19957,5.85938 7.69751,5.85938 8.3749,0 18.52024,-5.64833 37.40653,-20.82577 3.66257,-2.94332 4.34417,-4.47073 7.85919,-17.61173 0.89649,-3.35156 2.17379,-7.99219 2.83844,-10.3125 0.66465,-2.32031 1.44931,-5.48438 1.74368,-7.03125 0.29436,-1.54687 1.58722,-6.60938 2.87302,-11.25 1.2858,-4.64063 3.21875,-12.02344 4.29546,-16.40625 4.81588,-19.60343 12.87333,-50.75573 16.36753,-63.28125 0.71921,-2.57813 3.48673,-13.75781 6.15005,-24.84375 2.66332,-11.08594 5.33984,-21.21094 5.94782,-22.5 l 1.10544,-2.34375 38.66158,-0.2448 c 42.69905,-0.27036 40.86523,-0.53732 38.63031,5.6237 -0.61022,1.68223 -2.0872,6.85547 -3.28215,11.4961 -1.19495,4.64062 -3.09203,11.39062 -4.21573,15 -1.12369,3.60937 -3.46375,12.04687 -5.20013,18.75 -1.73638,6.70312 -3.81809,14.50781 -4.62602,17.34375 -0.80793,2.83594 -2.06025,7.6875 -2.78293,10.78125 -0.72268,3.09375 -2.16038,8.78906 -3.19488,12.65625 -2.11777,7.91667 -9.09823,34.54825 -16.21821,61.875 -2.61974,10.05469 -5.50195,21.44531 -6.40492,25.3125 -4.3674,18.70454 -8.73514,36.30489 -9.48314,38.21354 l -0.83076,2.11978 -38.68723,-0.24478 -38.68723,-0.24479 -0.2966,-2.08659 c -0.16312,-1.14763 0.83839,-6.08601 2.22559,-10.97418 2.74774,-9.68245 2.60872,-12.90985 -0.46168,-10.7178 -18.06313,12.89579 -31.52149,20.2841 -45.99856,25.2521 -8.05048,2.76264 -10.16738,3.08969 -22.03125,3.40377 -11.85631,0.31386 -13.72706,0.13658 -19.35355,-1.83404 z m 688.0619,0.18111 c -3.4604,-0.39525 -8.6959,-1.61816 -11.6344,-2.71759 -17.3602,-6.4953 -23.8075,-18.63621 -22.5671,-42.4964 0.6238,-12.00026 2.8426,-22.93598 10.9773,-54.10413 19.0671,-73.05629 23.7831,-91.5057 27.1991,-106.40625 1.6549,-7.21875 3.6011,-14.07422 4.3251,-15.23437 l 1.3161,-2.10938 37.8324,0 c 32.0811,0 38.0056,0.20876 38.972,1.37326 0.9058,1.09145 0.7599,2.58246 -0.7113,7.26562 -1.018,3.24081 -2.5179,8.42362 -3.333,11.51737 -0.8152,3.09375 -2.7908,10.19784 -4.3903,15.78688 -1.5995,5.58904 -4.8356,17.61248 -7.1912,26.71875 -6.7308,26.01947 -10.2736,39.53356 -11.9594,45.61937 -0.8569,3.09375 -2.3401,8.57813 -3.296,12.1875 -0.956,3.60938 -2.6657,9.9375 -3.7995,14.0625 -2.704,9.83765 -4.4835,16.64423 -6.0051,22.96875 -0.6822,2.83594 -2.1834,8.53125 -3.3359,12.65625 -5.5351,19.8108 -5.7339,22.02006 -2.2307,24.77571 5.2365,4.11906 13.2746,1.65891 28.9361,-8.85626 5.6718,-3.80811 12.3206,-8.73692 14.775,-10.95289 5.0726,-4.5798 2.5249,3.68612 19.4453,-63.09156 7.716,-30.45195 13.374,-52.62341 19.0199,-74.53125 1.2623,-4.89844 3.6693,-14.60156 5.3488,-21.5625 1.6795,-6.96094 3.6789,-13.66028 4.4431,-14.88742 l 1.3895,-2.23118 37.6329,0.68888 c 20.6981,0.3789 37.9494,0.88048 38.3361,1.11464 1.3507,0.81785 0.6788,4.97561 -2.5797,15.96376 -1.8057,6.08853 -3.8973,13.17945 -4.6483,15.75757 -1.9306,6.62792 -8.387,30.14153 -11.3266,41.25 -1.3643,5.15625 -3.1105,11.69531 -3.8802,14.53125 -0.7698,2.83594 -2.5901,9.79688 -4.0452,15.46875 -1.4552,5.67188 -3.9871,15.375 -5.6265,21.5625 -1.6394,6.1875 -3.5873,13.57031 -4.3286,16.40625 -1.5436,5.90508 -3.2846,12.24328 -5.4305,19.76931 -0.8213,2.88092 -1.8725,7.09967 -2.3357,9.375 -0.4632,2.27532 -1.9102,8.35569 -3.2157,13.51194 -1.3054,5.15625 -3.5172,14.33278 -4.9151,20.39229 -1.398,6.05951 -3.0096,11.63861 -3.5815,12.39799 -0.8825,1.17213 -6.6627,1.39645 -38.2647,1.48495 -20.4738,0.0574 -37.7058,-0.19281 -38.2932,-0.55589 -1.1917,-0.73651 -0.8689,-3.15577 1.4348,-10.75059 3.4336,-11.32048 3.6063,-12.25845 2.4679,-13.39689 -0.7335,-0.73344 -1.5288,-0.79118 -2.4214,-0.17579 -19.9882,13.78083 -29.0534,19.06217 -39.8692,23.22787 -12.2968,4.73608 -15.1935,5.39873 -29.0625,6.64841 -1.8047,0.16261 -6.1125,-0.0278 -9.5729,-0.42298 z m 318.4178,-4.92134 c -5.5553,-2.66156 -11.3146,-7.46509 -12.1658,-10.1467 -0.6259,-1.97202 1.7708,-5.50008 3.7364,-5.50008 0.5843,0 2.6816,1.93702 4.6606,4.30449 6.4083,7.66636 13.3663,10.06559 17.4239,6.00801 3.3395,-3.33947 2.7342,-6.18882 -4.6738,-22.00194 -2.0035,-4.27676 -4.7809,-11.09543 -6.172,-15.15261 -5.2866,-15.41837 -2.6325,-28.36275 7.7634,-37.86409 7.36,-6.72665 12.0659,-8.60778 22.8337,-9.12766 8.2967,-0.40056 9.3372,-0.24712 13.8582,2.04382 5.1044,2.58664 8.4765,7.32164 7.3342,10.29852 -0.7483,1.94996 -3.807,1.90998 -5.4383,-0.0711 -2.8804,-3.49805 -8.6679,-6.87498 -11.7824,-6.87498 -4.2058,0 -7.7855,3.49942 -7.7855,7.61103 0,1.70798 1.7799,6.48877 4.1171,11.05824 6.2657,12.25008 8.852,18.95638 10.5386,27.32647 1.3066,6.4849 1.36,8.4274 0.3554,12.92733 -1.6266,7.28519 -4.801,12.99218 -10.0771,18.11685 -6.2619,6.08203 -12.0346,8.44492 -21.809,8.92673 -6.9885,0.34447 -8.5529,0.11291 -12.7176,-1.88237 z M 1245.3576,328.642 c -0.5322,-1.38671 1.1028,-8.56735 6.3084,-27.7045 1.613,-5.92969 3.4671,-13.10156 4.1203,-15.9375 0.6532,-2.83594 2.8799,-11.48438 4.9482,-19.21875 2.0683,-7.73438 6.1571,-23.34375 9.086,-34.6875 2.9289,-11.34375 6.7309,-25.89844 8.4489,-32.34375 1.718,-6.44531 5.1115,-19.52344 7.5412,-29.0625 2.4296,-9.53906 6.0164,-23.46094 7.9704,-30.9375 7.7556,-29.67317 13.1955,-50.864744 16.8205,-65.525138 2.09,-8.452889 4.3277,-16.468514 4.9724,-17.8125 l 1.1722,-2.443612 37.9551,0.344678 c 20.8753,0.189574 38.2715,0.530878 38.6582,0.758454 0.979,0.576163 0.8771,3.849686 -0.2263,7.267807 -1.3272,4.111019 -6.3936,22.027303 -9.0326,31.941561 -1.2352,4.640625 -3.6888,13.5 -5.4524,19.6875 -1.7635,6.1875 -4.3556,15.67969 -5.7603,21.09375 -1.4046,5.41406 -4.6041,17.64844 -7.11,27.1875 -2.5059,9.53906 -5.989,22.82812 -7.7402,29.53125 -1.7513,6.70312 -4.101,15.5625 -5.2218,19.6875 -1.1207,4.125 -2.6031,9.82031 -3.2942,12.65625 -1.5371,6.30784 -3.341,13.10265 -6.0975,22.96875 -1.1525,4.125 -2.6272,9.82031 -3.2769,12.65625 -0.6499,2.83594 -1.8234,7.47656 -2.6077,10.3125 -2.9542,10.68122 -6.174,23.50179 -10.0065,39.84375 -2.1766,9.28125 -4.3311,17.82422 -4.7876,18.98437 l -0.8302,2.10938 -38.0182,0 c -32.3289,0 -38.0964,-0.20322 -38.5394,-1.358 z m 109.694,-60.92036 c -0.8844,-2.30486 0.2197,-2.8761 8.0036,-4.14093 3.8287,-0.62214 8.3854,-2.01129 10.126,-3.087 3.2693,-2.02056 6.531,-6.09401 5.6139,-7.01112 -0.2868,-0.28676 -2.8465,-0.0387 -5.6883,0.55127 -16.3845,3.4014 -24.5161,-10.04416 -15.3344,-25.35537 7.4893,-12.48892 24.3505,-15.03445 31.1843,-4.70787 2.3729,3.58566 2.496,4.30819 2.1291,12.49567 -0.3437,7.6704 -0.7604,9.3832 -3.5508,14.59868 -1.744,3.25964 -5.3448,7.90427 -8.0315,10.35978 -5.2585,4.806 -9.7721,6.61616 -18.468,7.40646 -4.4797,0.40712 -5.4726,0.22301 -5.9839,-1.10957 z"
     id="path3382"
     inkscape:connector-curvature="0" />
</svg>
